<svg width="74" height="73" viewBox="0 0 74 73" fill="none" xmlns="http://www.w3.org/2000/svg">
<path d="M0 36.5C0 16.3416 16.5655 0 37 0C57.4345 0 74 16.3416 74 36.5C74 56.6584 57.4345 73 37 73C16.5655 73 0 56.6584 0 36.5Z" fill="white"/>
<path d="M36.9999 26.7989C40.0106 26.7989 42.0415 28.0818 43.1994 29.1538L47.7244 24.7954C44.9453 22.2472 41.3289 20.6831 36.9999 20.6831C30.7291 20.6831 25.3134 24.2331 22.6768 29.3998L27.8609 33.3716C29.1613 29.558 32.7599 26.7989 36.9999 26.7989Z" fill="#EA4335"/>
<path d="M52.392 36.8513C52.392 35.5508 52.2851 34.6018 52.0535 33.6177H37V39.4874H45.8361C45.658 40.9461 44.696 43.1428 42.5582 44.619L47.6176 48.4853C50.6461 45.7262 52.392 41.6666 52.392 36.8513Z" fill="#4285F4"/>
<path d="M27.8789 39.628C27.5405 38.6439 27.3445 37.5894 27.3445 36.4998C27.3445 35.4102 27.5405 34.3558 27.8611 33.3716L22.677 29.3999C21.5903 31.5439 20.9668 33.9516 20.9668 36.4998C20.9668 39.0481 21.5903 41.4557 22.677 43.5998L27.8789 39.628Z" fill="#FBBC05"/>
<path d="M37.0006 52.3164C41.3296 52.3164 44.9638 50.9105 47.6182 48.4853L42.5588 44.619C41.2049 45.5504 39.3878 46.2006 37.0006 46.2006C32.7607 46.2006 29.1621 43.4415 27.8794 39.6279L22.6953 43.5997C25.3319 48.7665 30.7298 52.3164 37.0006 52.3164Z" fill="#34A853"/>
</svg>
