<svg width="73" height="73" viewBox="0 0 73 73" fill="none" xmlns="http://www.w3.org/2000/svg">
<path d="M36.5 73C56.6584 73 73 56.6584 73 36.5C73 16.3416 56.6584 0 36.5 0C16.3416 0 0 16.3416 0 36.5C0 56.6584 16.3416 73 36.5 73Z" fill="#25D366"/>
<path fill-rule="evenodd" clip-rule="evenodd" d="M37.7028 56.8069H37.6939C34.0614 56.8057 30.4921 55.8943 27.322 54.1651L15.8164 57.1833L18.8955 45.9365C16.9962 42.6449 15.9967 38.9112 15.9984 35.086C16.0031 23.1192 25.7396 13.3833 37.7026 13.3833C43.5087 13.3858 48.9581 15.6461 53.0558 19.7486C57.1536 23.8509 59.409 29.3039 59.4068 35.1031C59.402 47.0671 49.6694 56.802 37.7028 56.8069ZM27.8551 50.236L28.5139 50.6269C31.2836 52.2705 34.4585 53.1402 37.6955 53.1414H37.7028C47.6457 53.1414 55.7382 45.0488 55.7421 35.1018C55.744 30.2816 53.8694 25.7493 50.4635 22.3395C47.0576 18.9296 42.5283 17.0508 37.7099 17.0492C27.7594 17.0492 19.6668 25.141 19.6629 35.0872C19.6615 38.4959 20.6152 41.8155 22.421 44.6876L22.8499 45.3701L21.0275 52.027L27.8551 50.236ZM47.8945 39.7759C48.2727 39.9587 48.5281 40.0822 48.6372 40.2642C48.7727 40.4903 48.7727 41.5762 48.321 42.8431C47.8689 44.1099 45.7024 45.266 44.6604 45.4217C43.7261 45.5614 42.5437 45.6196 41.2447 45.2068C40.457 44.9569 39.4469 44.6232 38.1531 44.0644C33.069 41.8691 29.6332 36.9416 28.9839 36.0103C28.9384 35.9451 28.9066 35.8994 28.8888 35.8757L28.8844 35.8699C28.5974 35.487 26.6744 32.9212 26.6744 30.2657C26.6744 27.7677 27.9015 26.4584 28.4663 25.8557C28.505 25.8144 28.5406 25.7764 28.5725 25.7416C29.0695 25.1987 29.6571 25.0629 30.0186 25.0629C30.3801 25.0629 30.742 25.0663 31.058 25.0821C31.097 25.0841 31.1376 25.0839 31.1795 25.0836C31.4955 25.0818 31.8895 25.0795 32.2782 26.0131C32.4277 26.3724 32.6465 26.905 32.8773 27.4668C33.3439 28.6029 33.8595 29.8581 33.9502 30.0398C34.0858 30.3113 34.1762 30.6278 33.9954 30.9899C33.9683 31.0442 33.9432 31.0955 33.9192 31.1444C33.7834 31.4216 33.6836 31.6255 33.4531 31.8945C33.3625 32.0003 33.2689 32.1144 33.1752 32.2284C32.9886 32.4557 32.8021 32.6828 32.6397 32.8447C32.3682 33.1151 32.0855 33.4085 32.4019 33.9514C32.7182 34.4944 33.8066 36.2702 35.4188 37.7082C37.1518 39.254 38.6581 39.9074 39.4215 40.2385C39.5706 40.3032 39.6914 40.3556 39.78 40.3999C40.3221 40.6715 40.6385 40.6261 40.9548 40.2642C41.2712 39.9023 42.3105 38.6806 42.672 38.1378C43.0334 37.5951 43.3951 37.6855 43.8921 37.8664C44.3893 38.0475 47.0556 39.3593 47.5979 39.6307C47.7037 39.6838 47.8027 39.7316 47.8945 39.7759Z" fill="#FDFDFD"/>
</svg>
